<svg width="120" height="23" viewBox="0 0 120 23" fill="none" xmlns="http://www.w3.org/2000/svg">
<path fill-rule="evenodd" clip-rule="evenodd" d="M110.637 1.71975H10.8917C9.73087 1.71975 8.78981 2.6608 8.78981 3.82166V18.9172C8.78981 20.0781 9.73087 21.0191 10.8917 21.0191H110.637C111.798 21.0191 112.739 20.0781 112.739 18.9172V3.82166C112.739 2.6608 111.798 1.71975 110.637 1.71975ZM10.8917 0C8.78108 0 7.07007 1.71101 7.07007 3.82166V18.9172C7.07007 21.0278 8.78108 22.7389 10.8917 22.7389H110.637C112.748 22.7389 114.459 21.0278 114.459 18.9172V3.82166C114.459 1.71101 112.748 0 110.637 0H10.8917Z" fill="#F9E157"/>
<path d="M114.459 10.3185L114.459 12.8026L119.965 12.8026L119.965 10.3185L114.459 10.3185Z" fill="white"/>
<path d="M116.656 10.2229L116.656 12.8981C116.656 13.4258 117.084 13.8535 117.611 13.8535L119.045 13.8535C119.572 13.8535 120 13.4258 120 12.8981L120 10.2229C120 9.69528 119.572 9.26753 119.045 9.26753L117.611 9.26753C117.084 9.26753 116.656 9.69528 116.656 10.2229Z" fill="white"/>
<path d="M12.1922 18.7261C12.0381 18.7261 11.905 18.6701 11.7929 18.558C11.6808 18.4458 11.6247 18.3127 11.6247 18.1586V4.58024C11.6247 4.4261 11.6808 4.29298 11.7929 4.18088C11.905 4.06878 12.0381 4.01273 12.1922 4.01273H15.5133C15.9056 4.01273 16.1929 4.17387 16.375 4.49617L19.9273 10.3185V4.58024C19.9273 4.4261 19.9833 4.29298 20.0954 4.18088C20.2075 4.06878 20.3406 4.01273 20.4948 4.01273H24.2992C24.4534 4.01273 24.5865 4.06878 24.6986 4.18088C24.8107 4.29298 24.8668 4.4261 24.8668 4.58024V18.1586C24.8668 18.3127 24.8107 18.4458 24.6986 18.558C24.5865 18.6701 24.4534 18.7261 24.2992 18.7261H20.9782C20.74 18.7261 20.5578 18.6771 20.4317 18.579C20.3056 18.4809 20.2005 18.3688 20.1164 18.2427L16.5642 12.8828V18.1586C16.5642 18.3127 16.5082 18.4458 16.3961 18.558C16.284 18.6701 16.1508 18.7261 15.9967 18.7261H12.1922Z" fill="white"/>
<path d="M27.7513 18.7261C27.5972 18.7261 27.464 18.6701 27.3519 18.558C27.2398 18.4458 27.1838 18.3127 27.1838 18.1586V4.58024C27.1838 4.4261 27.2398 4.29298 27.3519 4.18088C27.464 4.06878 27.5972 4.01273 27.7513 4.01273H38.3449C38.4991 4.01273 38.6322 4.06878 38.7443 4.18088C38.8564 4.29298 38.9125 4.4261 38.9125 4.58024V7.77515C38.9125 7.92929 38.8564 8.06241 38.7443 8.17451C38.6322 8.28661 38.4991 8.34266 38.3449 8.34266H32.3335V9.89808H37.9246C38.0787 9.89808 38.2118 9.95413 38.3239 10.0662C38.436 10.1783 38.4921 10.3115 38.4921 10.4656V13.6395C38.4921 13.7936 38.436 13.9267 38.3239 14.0388C38.2118 14.1509 38.0787 14.207 37.9246 14.207H32.3335V18.1586C32.3335 18.3127 32.2774 18.4458 32.1653 18.558C32.0532 18.6701 31.9201 18.7261 31.766 18.7261H27.7513Z" fill="white"/>
<path d="M41.3398 18.7261C41.1857 18.7261 41.0526 18.6701 40.9405 18.558C40.8284 18.4458 40.7723 18.3127 40.7723 18.1586V4.58024C40.7723 4.4261 40.8284 4.29298 40.9405 4.18088C41.0526 4.06878 41.1857 4.01273 41.3398 4.01273H45.5437C45.6978 4.01273 45.8309 4.06878 45.943 4.18088C46.0551 4.29298 46.1112 4.4261 46.1112 4.58024V14.4172H51.9335C52.0876 14.4172 52.2207 14.4732 52.3328 14.5853C52.4449 14.6974 52.501 14.8306 52.501 14.9847V18.1586C52.501 18.3127 52.4449 18.4458 52.3328 18.558C52.2207 18.6701 52.0876 18.7261 51.9335 18.7261H41.3398Z" fill="white"/>
<path d="M53.2362 18.7261C53.11 18.7261 52.9979 18.6841 52.8998 18.6C52.8158 18.5019 52.7737 18.3898 52.7737 18.2637C52.7737 18.2076 52.7807 18.1586 52.7948 18.1165L57.482 4.70636C57.5381 4.52419 57.6432 4.36305 57.7973 4.22292C57.9514 4.08279 58.1616 4.01273 58.4279 4.01273H62.989C63.2553 4.01273 63.4655 4.08279 63.6196 4.22292C63.7737 4.36305 63.8788 4.52419 63.9349 4.70636L68.6221 18.1165C68.6362 18.1586 68.6432 18.2076 68.6432 18.2637C68.6432 18.3898 68.5941 18.5019 68.496 18.6C68.412 18.6841 68.3069 18.7261 68.1807 18.7261H64.2922C63.8718 18.7261 63.5986 18.5509 63.4725 18.2006L62.968 16.8134H58.4489L57.9444 18.2006C57.8183 18.5509 57.5451 18.7261 57.1247 18.7261H53.2362ZM61.896 12.7146L60.6979 8.80508L59.5209 12.7146H61.896Z" fill="white"/>
<path d="M72.1649 18.7261C72.0107 18.7261 71.8776 18.6701 71.7655 18.558C71.6534 18.4458 71.5973 18.3127 71.5973 18.1586V8.53183H68.1082C67.954 8.53183 67.8209 8.47578 67.7088 8.36368C67.5967 8.25158 67.5406 8.11846 67.5406 7.96432V4.58024C67.5406 4.4261 67.5967 4.29298 67.7088 4.18088C67.8209 4.06878 67.954 4.01273 68.1082 4.01273H80.4254C80.5795 4.01273 80.7126 4.06878 80.8247 4.18088C80.9368 4.29298 80.9929 4.4261 80.9929 4.58024V7.96432C80.9929 8.11846 80.9368 8.25158 80.8247 8.36368C80.7126 8.47578 80.5795 8.53183 80.4254 8.53183H76.9362V18.1586C76.9362 18.3127 76.8801 18.4458 76.768 18.558C76.6559 18.6701 76.5228 18.7261 76.3687 18.7261H72.1649Z" fill="white"/>
<path d="M83.0702 18.7261C82.916 18.7261 82.7829 18.6701 82.6708 18.558C82.5587 18.4458 82.5026 18.3127 82.5026 18.1586V4.58024C82.5026 4.4261 82.5587 4.29298 82.6708 4.18088C82.7829 4.06878 82.916 4.01273 83.0702 4.01273H93.853C94.0071 4.01273 94.1402 4.06878 94.2523 4.18088C94.3644 4.29298 94.4205 4.4261 94.4205 4.58024V7.54394C94.4205 7.69808 94.3644 7.8312 94.2523 7.9433C94.1402 8.0554 94.0071 8.11145 93.853 8.11145H87.5472V9.43566H93.3905C93.5447 9.43566 93.6778 9.49171 93.7899 9.60381C93.902 9.71591 93.9581 9.84903 93.9581 10.0032V12.7357C93.9581 12.8898 93.902 13.0229 93.7899 13.135C93.6778 13.2471 93.5447 13.3032 93.3905 13.3032H87.5472V14.6274H94.0211C94.1753 14.6274 94.3084 14.6834 94.4205 14.7955C94.5326 14.9076 94.5886 15.0408 94.5886 15.1949V18.1586C94.5886 18.3127 94.5326 18.4458 94.4205 18.558C94.3084 18.6701 94.1753 18.7261 94.0211 18.7261H83.0702Z" fill="white"/>
<path d="M97.0897 18.7261C96.9356 18.7261 96.8025 18.6701 96.6904 18.558C96.5783 18.4458 96.5222 18.3127 96.5222 18.1586V4.58024C96.5222 4.4261 96.5783 4.29298 96.6904 4.18088C96.8025 4.06878 96.9356 4.01273 97.0897 4.01273H103.311C105.329 4.01273 106.906 4.46814 108.041 5.37897C109.176 6.27578 109.743 7.52292 109.743 9.12037C109.743 10.0312 109.54 10.8369 109.134 11.5376C108.727 12.2242 108.174 12.7917 107.473 13.2401L110.059 18.0325C110.101 18.1165 110.122 18.1936 110.122 18.2637C110.122 18.3898 110.073 18.5019 109.974 18.6C109.89 18.6841 109.785 18.7261 109.659 18.7261H105.35C105.098 18.7261 104.895 18.6701 104.741 18.558C104.601 18.4318 104.502 18.2987 104.446 18.1586L102.639 14.1439H101.777V18.1586C101.777 18.3127 101.721 18.4458 101.609 18.558C101.497 18.6701 101.364 18.7261 101.209 18.7261H97.0897ZM103.311 10.1503C103.62 10.1503 103.858 10.0522 104.026 9.85604C104.194 9.64585 104.278 9.38661 104.278 9.07833C104.278 8.77005 104.194 8.50381 104.026 8.27961C103.872 8.04139 103.634 7.92228 103.311 7.92228H101.777V10.1503H103.311Z" fill="white"/>
<path d="M1.52969 10.223L1.52969 12.707L7.0366 12.707L7.0366 10.223L1.52969 10.223Z" fill="white"/>
<path fill-rule="evenodd" clip-rule="evenodd" d="M3.05441 7.39158C2.79576 10.1761 2.75257 13.2602 3.05017 15.5954C3.13883 16.2911 2.57827 16.9191 1.79813 16.9982C1.01799 17.0772 0.313689 16.5773 0.225032 15.8817C-0.100918 13.324 -0.046639 10.0613 0.220791 7.18228C0.285605 6.48451 0.972476 5.96572 1.75496 6.02351C2.53744 6.08131 3.11923 6.69381 3.05441 7.39158Z" fill="white"/>
</svg>
